<svg width="828" height="77" viewBox="0 0 828 77" fill="none" xmlns="http://www.w3.org/2000/svg">
<path d="M0.221876 75V5H14.4219V62.1H41.0219V75H0.221876ZM94.5117 66.8C89.8117 73.1 82.0117 77 72.5117 77C54.6117 77 44.5117 64.5 44.5117 49.8C44.5117 34.9 53.9117 22.6 70.4117 22.6C84.4117 22.6 93.6117 32.1 93.6117 45.3C93.6117 48.1 93.2117 50.7 92.8117 52.4H57.5117C58.7117 61.8 64.5117 65.6 72.4117 65.6C77.9117 65.6 82.7117 63.2 85.4117 59.6L94.5117 66.8ZM70.1117 33C63.6117 33 59.3117 36.6 57.9117 43.2H81.1117C80.9117 38.1 77.2117 33 70.1117 33ZM159.875 63.7C166.475 63.7 172.175 61.4 176.175 57.6V45.4H158.375V33.3H190.375V62.7C183.875 71.4 172.975 77 159.875 77C137.175 77 121.675 60 121.675 40C121.675 20 136.775 3 158.875 3C171.575 3 181.975 8.7 188.375 17.2L177.175 25.9C173.175 20.2 166.875 16.3 158.875 16.3C145.675 16.3 136.275 26.6 136.275 40C136.275 53.4 146.175 63.7 159.875 63.7ZM225.248 22.6C241.648 22.6 252.848 34.7 252.848 49.8C252.848 64.9 241.648 77 225.248 77C208.848 77 197.648 64.9 197.648 49.8C197.648 34.7 208.848 22.6 225.248 22.6ZM225.448 65C233.548 65 239.648 58.5 239.648 49.8C239.648 41 233.548 34.6 225.448 34.6C217.048 34.6 210.848 41 210.848 49.8C210.848 58.6 217.048 65 225.448 65ZM275.632 16.6H264.532L274.832 -5.96046e-06H291.032L301.332 16.6H290.232L282.932 5.7L275.632 16.6ZM293.632 53.2V24.6H306.432V52.6C306.432 67.7 297.632 77 282.832 77C268.032 77 259.332 67.7 259.332 52.6V24.6H272.132V53.2C272.132 60.5 275.932 65 282.932 65C289.832 65 293.632 60.5 293.632 53.2ZM320.472 56.6V36H311.072V24.6H320.472V12H333.272V24.6H348.672V36H333.272V56.6C333.272 62.2 336.272 64.4 341.272 64.4C344.772 64.4 347.072 64 348.772 63.3V74.4C346.272 75.5 343.272 76 339.072 76C326.472 76 320.472 68.9 320.472 56.6ZM375.398 49.8C375.398 35.1 385.098 22.6 400.998 22.6C407.798 22.6 412.698 24.7 416.598 28.6V-5.96046e-06H429.398V75H416.598V71C412.698 74.9 407.798 77 400.998 77C385.098 77 375.398 64.5 375.398 49.8ZM388.698 49.8C388.698 58.6 394.198 65 402.798 65C408.498 65 413.198 62.6 416.598 58V41.6C413.198 37 408.498 34.6 402.798 34.6C394.198 34.6 388.698 41 388.698 49.8ZM487.023 66.8C482.323 73.1 474.523 77 465.023 77C447.123 77 437.023 64.5 437.023 49.8C437.023 34.9 446.423 22.6 462.923 22.6C476.923 22.6 486.123 32.1 486.123 45.3C486.123 48.1 485.723 50.7 485.323 52.4H450.023C451.223 61.8 457.023 65.6 464.923 65.6C470.423 65.6 475.223 63.2 477.923 59.6L487.023 66.8ZM462.623 33C456.123 33 451.823 36.6 450.423 43.2H473.623C473.423 38.1 469.723 33 462.623 33ZM520.187 75V5H560.987V16.8H534.387V33.4H556.987V45.2H534.387V75H520.187ZM565.635 75V24.6H578.335V29.6C581.635 26.2 585.935 23.6 591.635 23.6C593.335 23.6 594.835 23.9 596.035 24.3V36.8C594.435 36.4 592.735 36.1 590.435 36.1C584.235 36.1 580.235 39.5 578.335 42.7V75H565.635ZM614.019 76.5C603.919 76.5 597.019 70.7 597.019 61.4C597.019 53.8 602.919 48.1 613.719 46.3L629.119 43.7V42.4C629.119 37.1 625.119 33.7 619.319 33.7C614.419 33.7 610.619 36 607.919 39.7L598.619 32.6C603.119 26.4 610.519 22.6 619.719 22.6C634.319 22.6 641.819 31.3 641.819 42.4V75H629.119V70.1C625.919 74 619.919 76.5 614.019 76.5ZM609.619 60.8C609.619 64.2 612.319 66.4 616.619 66.4C622.419 66.4 626.619 63.7 629.119 59.7V52.6L617.119 54.6C611.819 55.5 609.619 57.7 609.619 60.8ZM652.362 75V24.6H665.062V28.6C668.562 25.2 673.262 22.6 679.962 22.6C690.862 22.6 699.562 30.1 699.562 45V75H686.762V45.5C686.762 38.8 682.962 34.6 676.762 34.6C670.362 34.6 666.962 38.9 665.062 42.1V75H652.362ZM734.183 65C739.183 65 743.183 62.7 745.583 59.2L755.483 66.8C750.783 73 743.383 77 734.183 77C716.783 77 706.383 64.5 706.383 49.8C706.383 35.1 716.783 22.6 734.183 22.6C743.383 22.6 750.783 26.6 755.483 32.8L745.583 40.4C743.183 36.9 739.183 34.6 733.983 34.6C725.683 34.6 719.583 41 719.583 49.8C719.583 58.7 725.683 65 734.183 65ZM805.41 66.8C800.71 73.1 792.91 77 783.41 77C765.51 77 755.41 64.5 755.41 49.8C755.41 34.9 764.81 22.6 781.31 22.6C795.31 22.6 804.51 32.1 804.51 45.3C804.51 48.1 804.11 50.7 803.71 52.4H768.41C769.61 61.8 775.41 65.6 783.31 65.6C788.81 65.6 793.61 63.2 796.31 59.6L805.41 66.8ZM781.01 33C774.51 33 770.21 36.6 768.81 43.2H792.01C791.81 38.1 788.11 33 781.01 33ZM818.725 76.2C813.825 76.2 809.925 72.3 809.925 67.5C809.925 62.8 813.825 58.8 818.725 58.8C823.425 58.8 827.525 62.8 827.525 67.5C827.525 72.3 823.425 76.2 818.725 76.2Z" fill="url(#paint0_linear_1588_711)"/>
<defs>
<linearGradient id="paint0_linear_1588_711" x1="411" y1="-16.7479" x2="411" y2="101" gradientUnits="userSpaceOnUse">
<stop stop-color="#0C5B91"/>
<stop offset="0.85" stop-color="#633B57" stop-opacity="0"/>
</linearGradient>
</defs>
</svg>
