<svg width="29" height="30" viewBox="0 0 29 30" fill="none" xmlns="http://www.w3.org/2000/svg">
<path opacity="0.2" d="M22.6562 8.65625L14.5 16.8125L6.34375 8.65625H22.6562Z" fill="#202E4B"/>
<path d="M26.9226 5.67242C27.0495 5.54568 27.136 5.38414 27.171 5.20825C27.206 5.03236 27.1881 4.85003 27.1194 4.68435C27.0508 4.51866 26.9345 4.37707 26.7853 4.2775C26.6362 4.17793 26.4608 4.12486 26.2815 4.125H2.71898C2.53963 4.12486 2.36428 4.17793 2.21512 4.2775C2.06595 4.37707 1.94969 4.51866 1.88104 4.68435C1.81239 4.85003 1.79444 5.03236 1.82946 5.20825C1.86449 5.38414 1.95092 5.54568 2.0778 5.67242L13.594 17.1875V24.0625H9.96898C9.72862 24.0625 9.49811 24.158 9.32816 24.3279C9.15821 24.4979 9.06273 24.7284 9.06273 24.9688C9.06273 25.2091 9.15821 25.4396 9.32816 25.6096C9.49811 25.7795 9.72862 25.875 9.96898 25.875H19.0315C19.2718 25.875 19.5023 25.7795 19.6723 25.6096C19.8422 25.4396 19.9377 25.2091 19.9377 24.9688C19.9377 24.7284 19.8422 24.4979 19.6723 24.3279C19.5023 24.158 19.2718 24.0625 19.0315 24.0625H15.4065V17.1875L26.9226 5.67242ZM8.53144 9.5625H20.469L14.5002 15.5313L8.53144 9.5625ZM24.094 5.9375L22.2815 7.75H6.71894L4.90644 5.9375H24.094Z" fill="#202E4B"/>
</svg>
